<svg role="img" viewBox="0 0 24 24" xmlns="http://www.w3.org/2000/svg">
  <title>Shopify</title>
  <path d="M15.165 2.527c-.451 0-1.027.26-1.453.545a6.32 6.32 0 0 0-1.002-.365 9.543 9.543 0 0 0-.77-.159c-.352-1.14-1.084-1.702-1.853-1.702-.087 0-.177.008-.265.024C8.543.38 7.754 1.3 7.306 2.48c-.766.144-1.52.404-2.255.779-.147.072-.292.148-.436.23C4.2 4.07 3.8 4.574 3.8 5.164V22.5c0 .332.25.6.562.648l11.963 1.85c.042.006.083.01.125.01.26 0 .498-.182.553-.454l2.5-12.5c.015-.073.02-.148.014-.222V5.164c0-.504-.23-.967-.623-1.27a10.875 10.875 0 0 0-3.227-1.367 7.96 7.96 0 0 0-.727-.121c-.348-.571-.918-.879-1.775-.879zM9.6 2.695c.38.072.656.357.815.863-.268.073-.543.162-.826.266-.114-.55-.28-.975-.497-1.25a.91.91 0 0 1 .508.121zm1.74 1.388c.123.028.248.059.375.092.168.042.338.089.505.144a8.222 8.222 0 0 1 .408.152c.057.26.09.544.097.846a7.658 7.658 0 0 0-.86-.164c-.216-.027-.433-.046-.648-.056.048-.328.076-.676.078-1.014zm-1.96.334c.08.258.144.576.19.947-.375.118-.748.266-1.12.444.26-.702.57-1.198.93-1.391zm2.57 1.406c.264.014.528.041.79.082.16.023.318.051.476.085a8.267 8.267 0 0 1 .668.18c.013.162.02.329.02.5 0 2.15-.802 3.479-1.885 4.076-.277.15-.58.23-.894.23-.531 0-1.117-.265-1.692-.726l.004.002-.004-.002v.002c-.575-.46-1.16-.726-1.692-.726-.314 0-.617.08-.894.23-1.083.597-1.885 1.926-1.885 4.076 0 .17.007.337.02.499.203.05.409.097.615.14.265.052.531.095.798.13.224.03.446.053.669.068 0 1.4.5 2.48 1.287 3.2-.47.232-.967.352-1.478.352-.762 0-1.505-.266-2.07-.744-.563-.478-.896-1.116-.896-1.888V5.164c0-.222.093-.429.262-.578.497-.406 1.042-.74 1.617-.988.635-.27 1.27-.452 1.902-.544.536-.978 1.227-1.477 2.072-1.477.202 0 .397.037.59.108-.243.334-.41.744-.494 1.224z"/>
</svg>
